<?xml version="1.0" encoding="utf-8"?>
<svg viewBox="35 20 420 200" width="420" height="200" xmlns="http://www.w3.org/2000/svg">
  <defs>
    <style>.s0{fill:rgb(0, 0, 0);}</style>
  </defs>
  <g transform="matrix(0.357801, 0, 0, 0.306061, 129.929398, -129.769821)" fill="#1b1b1b" style="">
    <path d="m-236.5 515.1c-1.6 0-3.1 0.1-4.7 0.5-6 1.3-11.2 5.9-13.2 11.7-1.6 4.4-1.1 9.2-1.1 13.9 0 174.7 0 349.4 0 524.1-0.3 7 3.6 13.9 9.8 17.2 5.2 2.9 11.4 2 17.2 2.1 360 0 720.1 0 1080.1 0 7.6 0.3 15.2-4.4 17.8-11.6 2.2-5.7 1.1-11.8 1.3-17.7 0-171.4 0-342.7 0-514.1-0.1-5.4 0.6-11.1-2.1-16.1-3-6-9.4-9.9-16.1-9.9-363 0-726 0-1089 0z" style="fill: rgb(255, 255, 255);"/>
  </g>
  <g transform="matrix(0.426183, 0, 0, 0.426183, -5.948794, -16.616858)" fill="#fff">
    <path d="m307.6 111.7c8.4-1.4 17.9 0.3 24 6.7 2.1 2.5 4.1 6 2.7 9.3-0.9 2.9-4.5 3.3-7 2.8-3.6-1.4-4.6-5.9-7.9-7.8-2.9-1.5-6.3-2.2-9.5-1.1-5.9 1.6-9.5 7.7-10.1 13.4-0.5 6-0.3 12.7 3.6 17.5 4.1 5.1 13.1 6.6 17.6 1.1 2.5-2.4 4-7.2 8.2-6.7 2.5-0.1 4.9 1.5 5.7 3.9 0.2 6.5-5.2 11.7-10.8 14-5.1 2.4-11 2.2-16.5 1.6-8.4-1.1-16.2-7-18.5-15.3-2.9-9.6-2.6-20.9 3-29.5 3.5-5.4 9.4-9 15.7-10.1zM409.9 115c1-3.5 5.1-3.5 8.1-3.4 2.7-0.2 5.8 0.8 6.8 3.5 5 13.4 9.7 27 14.6 40.4 0.9 2.4 1.9 5 1.3 7.6-1.5 4.1-7.8 5.1-10.4 1.6-1.6-3.2-2.4-6.8-3.9-10.1-6.4 0.1-12.8 0-19.2 0-1.2 3.3-2.2 6.8-3.7 10-2.4 3.3-8.7 2.8-10.2-1.1-0.7-2.5 0.1-5 0.9-7.3 5.3-13.7 10.3-27.6 15.7-41.3m7.2 10.8c-2.2 6.6-4.3 13.2-6.6 19.8 4.3 0 8.6 0 13 0-2.2-6.6-4.2-13.2-6.3-19.8zM719.1 116.9c0-4.9 6.1-6.2 9.9-5 2.6 0.6 3.9 3 5.2 5.1 6.5 10.8 13.4 21.3 19.8 32.1 0.3-11-0.1-22.1 0.2-33.1 0.1-4.2 5.6-5.4 8.7-3.8 2.3 0.9 3 3.6 2.9 5.9 0 14 0 28 0 42 0 2.7-1.4 5.7-4.2 6.4-3.2 0.7-7.5 0.9-9.4-2.4-7.2-11.2-14.2-22.5-21.4-33.7 0 10.6 0.1 21.1 0 31.7-0.1 5.7-9.4 6.6-11.3 1.6-0.5-2.2-0.3-4.4-0.3-6.6 0.1-13.3-0.1-26.7 0.1-40zM842.9 116.8c0.8-2.4 2.2-5.1 5.1-5.1 3.7-0.3 9.1-0.8 10.6 3.6 5.1 13.8 9.9 27.6 15 41.4 0.8 2.2 1.6 4.6 0.7 6.9-1.8 4.2-9 4.5-10.8 0.1-1.2-2.9-2.1-6-3.2-8.9-6.4 0-12.8 0-19.2 0-1.4 3.5-2.3 7.1-4 10.4-2.4 2.3-6.9 2.4-9.1-0.1-1.5-2.2-1-5.1-0.3-7.5 5.1-13.6 10.3-27.1 15.3-40.7m8 9.1c-2.2 6.6-4.4 13.2-6.6 19.7 4.3-0.1 8.6-0.1 13 0-2.1-6.5-4.2-13.1-6.3-19.7zM505.2 113.4c4.1-1.5 8.5-0.5 12.8-0.8 8-0.2 16.9-0.3 23.4 5 7.1 5.8 8.5 15.7 8.1 24.4-0.4 8-3.9 16.3-11.1 20.4-8.6 4.9-18.9 3.2-28.4 3.5-3.3 0.3-7.2-1.2-7.5-4.9-0.3-13.6 0-27.3-0.1-40.9-0.1-2.4 0.3-5.6 2.9-6.6m9.7 9.5c0.1 10.9-0.1 21.9 0.1 32.8 4.6-0.2 9.3 0.5 13.8-0.7 6-2.1 8-9 8.3-14.8 0-5.3-0.7-11.4-5.1-15-4.9-3.7-11.4-1.7-17.1-2.2zM613.6 120.1c-0.1-3.3 1.5-7.2 5.3-7.4 9.7-0.2 19.4 0 29.1-0.1 2.3 0.1 5.1-0.2 6.7 1.8 1.3 2.2 1.2 5.6-1 7.2-1.7 0.9-3.8 0.9-5.7 0.9-7.4 0-14.8 0-22.1 0 0 3.7 0 7.4 0 11.1 6.7 0.1 13.5-0.1 20.2 0.1 2 0.3 4.9 0.2 5.7 2.6 0.8 2.4 0.5 6.4-2.7 6.7-7.7 0.4-15.5 0-23.2 0.1 0 4.3 0 8.7 0 13 8 0 16.1 0 24.1 0 2 0 4.6 0 5.6 2.1 0.6 1.8 0.7 3.7 0 5.5-1.4 2.1-4.2 2.2-6.5 2.3-8.7 0-17.3 0-26 0-2.4-0.1-5.2 0.2-7.2-1.5-2-1.8-2-4.8-2.2-7.4 0.1-12.3-0.1-24.6 0.1-36.9zM182.6 215.7c3.5-0.6 7-0.7 10.5-0.7 64.3 0 128.7 0 193 0 8.6-0.2 16.3 7.4 16.6 16 0.1 7.7 0 15.4 0 23.1 0 7.4-5.6 14.3-12.7 16.2-3.2 0.9-6.6 0.6-9.9 0.6-62 0-124 0-186 0-16.2 0.2-30.8 14.8-30.6 31.2-0.6 13.2 8.2 25.9 20.5 30.4 4.1 1.7 8.7 2.2 13.1 2.2 39 0 78 0 117.1 0 20.4-0.3 40.8 6.9 56.5 19.8 15.9 12.8 26.9 31.5 30.6 51.5 3.7 19.3 0.8 39.7-8.4 57.1-12.3 23.9-36.2 41.5-62.7 45.9-6.9 1.5-14 1.1-21.1 1.2-59.7 0-119.3 0-179 0-4.4-0.1-9.2 0.6-13.2-1.7-6.1-2.8-9.9-9.6-9.5-16.3 0.1-7.3-0.1-14.7 0.1-22 0.5-8.9 8.7-16.2 17.6-15.9 64 0 128 0 192.1 0 16.3-0.8 30.4-15.8 29.6-32.1 0.4-16.6-14.5-31.5-31.1-31.5-35.5-0.1-71-0.2-106.5 0.2-11.7 0.1-23.6 0.2-35.1-2.7-20.4-5.1-38.9-17.6-50.8-34.9-10-14.3-15.6-31.6-15.8-49-0.4-21.2 7.2-42.5 21.1-58.5 13.7-16 33.3-26.9 54.2-29.8zM430.6 223.6c2.9-5 8.4-9 14.4-8.6 87 0 174 0 261 0 9-0.2 16.7 8.1 16.7 17 0 7.4 0 14.8 0 22.1-0.1 9.1-8.4 17.2-17.5 16.8-74 0-148.1 0-222.1 0 0 21.2 0 42.5 0 63.7 64 0 128 0 192 0 6.5 0 13.1 3.7 15.8 9.8 2.8 5.8 1.3 12.5 1.7 18.7-0.3 5.7 0.9 11.7-1.3 17.2-2.7 6.3-9.2 10.5-16 10.5-64 0.1-128.1 0-192.1 0 0 21.2 0 42.5 0 63.7 74.4 0 148.7 0 223.1 0 8.4 0.1 15.9 7.2 16.5 15.6 0.2 7.7 0 15.4 0.1 23.1 0.1 8.8-7.5 17.4-16.6 17-27.3 0-54.7 0-82 0-5.7-0.3-11.3 0.7-17 0.4-53.3 0-106.6 0-160 0-4 0-8.2-0.7-11.4-3.2-6.2-4.6-8.6-12.7-8.4-20.2 0-82.7 0-165.3 0-248-0.1-5.3 0.6-10.8 3.4-15.4zM747 231.9c-0.3-9 8-17.3 17-16.9 64.3 0 128.7 0 193 0 30.8 0.4 60.4 18.8 74.8 46 13.7 25.1 14 57 0.6 82.3-5.6 11.1-13.9 20.7-23.6 28.5-33 28.1-65.8 56.3-98.8 84.4 23.7-0.1 47.3-1.1 71-1 17-0.1 34-1 51-0.8 8.6 0.2 16.1 7.9 16.3 16.5 0.2 7.4 0.1 14.7 0.1 22.1 0 7.3-4.9 14.2-11.8 16.5-4.4 1.2-9 1.1-13.6 1-56.3 0-112.7 0-169 0-9.8 0.1-19.7-3.6-26.1-11.2-11.3-12.5-10.3-33.8 2.3-45 48.6-42.7 97.3-85.4 145.9-128.2 8.5-7.6 12.3-20 9.3-31-3.2-13.6-16.3-24.1-30.3-24.2-50.7 0-101.5 0-152.2 0 0 74.1 0 148.1 0 222.2 0.1 7.5-5.3 14.8-12.7 16.6-5.9 1.3-12.1 0.6-18.1 0.8-5.2 0-10.8 0.4-15.6-1.9-5.7-2.8-9.7-9-9.4-15.5 0-87 0-174 0-261z" style="fill: rgb(48, 48, 48);"/>
  </g>
</svg>