<svg viewBox="0 0 802 526" xmlns="http://www.w3.org/2000/svg"><g fill="none" transform="translate(.535394 .84)"><path d="m134 42.6v318c0 25 7.5 31.9 47.5 31.9 73.3 0 132.8-33.8 132.8-189.7 0-110.8-40.1-180.3-130.3-180.3-43.8 0-50 3.2-50 20.1zm-134-40.1h199.1c76.3 0 126.4 13.2 162.1 47.6 35.1 33.8 49.5 83.9 49.5 149 0 186.5-132.8 214.1-236.7 214.1h-174v-17.6c43.2-1.8 47-5 47-35.6v-304.3c0-30.7-5.1-33.2-47-35.7zm800.9 410.7h-182.8v-17.6l32.6-3.1c13.7-1.2 15.6-9.4 11.2-22.5-10-31.3-27.5-83.3-36.3-110.2h-123.3c-12.5 40.1-23.8 74.5-31.9 108.3-4.4 15.6-2.5 23.2 11.9 24.4l34.4 3.1v17.6h-129.6v-17.6c33.2-1.8 38.8-6.9 50.7-35.6 29.4-71.4 89.5-249.2 125.8-360h63.9c31.9 97 94.5 284.8 124.6 365.6 9.4 25 16.9 28.8 48.8 30zm-183.4-175.9c-11.9-38.2-40.1-127.1-53.2-167.8h-1.9c-11.9 36.9-38.8 122.7-52.6 167.8z" fill="#333"/><path d="m66.8 455.9v56.9c0 4.4 1.3 5.7 8.5 5.7 13.1 0 23.7-6.1 23.7-34 0-19.8-7.1-32.2-23.3-32.2-7.8 0-8.9.5-8.9 3.6zm-24-7.2h35.6c13.7 0 22.7 2.3 29 8.5 6.3 6 8.9 15 8.9 26.7 0 33.3-23.8 38.3-42.3 38.3h-31.2v-3.2c7.7-.3 8.4-.9 8.4-6.4v-54.4c0-5.5-.9-5.9-8.4-6.4zm96.3-1.1h.1c4.9 0 7.8 3.6 7.8 7.8 0 4.3-3.1 7.8-7.9 7.8-4.9 0-7.8-3.5-7.8-7.8 0-4.2 2.9-7.8 7.8-7.8zm-6.9 65.9v-32.6c0-4.1-.8-5-2.8-5.2l-3.4-.6v-2.9l20-2.9.5.4v43.8c0 4.7.6 5.1 6.8 5.5v3.2h-28v-3.2c6.2-.3 6.9-.8 6.9-5.5zm73.2-29.2v24.9c0 6 1.1 7.6 2.9 8.3 1.3.4 3 .5 4.4.4l.2 2.6c-3.2 1.7-7.7 3-13.1 3-5 0-7-2.6-8.2-6.5-3.5 2.4-8.4 6.5-15.1 6.5-10.5 0-15.4-7.3-15.4-15.2 0-5.7 2.5-10.3 10.8-12.9 7.4-2.1 16.5-4.8 19.5-7.4v-5.7c0-6.8-3-9.5-7.2-9.5-3.8 0-7.1 2.1-9.5 11.6-.5 2.4-1.9 3.6-4.1 3.6-2.6 0-8-1.7-8-6.2 0-6 8.2-12.6 22.9-12.6 18 0 19.9 8.6 19.9 15.1zm-14 24.6v-16.9c-2.5 1.3-6.6 2.9-10.2 4.7-3.7 1.9-5.4 4.6-5.4 9.6 0 6.1 3.4 10.6 8.4 10.6 2.8 0 7.2-1.6 7.2-8zm47.9-20.1v24.7c0 4.7.7 5.1 9 5.5v3.2h-30.1v-3.2c6.2-.3 6.8-.8 6.8-5.5v-32.6c0-4-.8-4.9-2.7-5.2l-3.6-.5v-2.9l19.2-3 1.2 9.6c6.4-6.6 9.6-9.7 13.9-9.7 4.5 0 6.9 2.8 6.9 6.9 0 3.9-2.5 8.4-6.8 8.4-1.7 0-2.8-.8-3.9-1.7-2.3-1.9-3.8-2.8-5.6-2.8-2.6 0-4.3 2.6-4.3 8.8zm39.8-41.2h.1c4.8 0 7.7 3.6 7.7 7.8 0 4.3-3 7.8-7.8 7.8-5 0-7.9-3.5-7.9-7.8 0-4.2 2.9-7.8 7.9-7.8zm-7 65.9v-32.6c0-4.1-.8-5-2.8-5.2l-3.3-.6v-2.9l19.9-2.9.6.4v43.8c0 4.7.5 5.1 6.8 5.5v3.2h-28v-3.2c6.2-.3 6.8-.8 6.8-5.5zm55.6-44.3h.1c18.5 0 26.3 10.3 26.3 27.2s-7.8 27.1-26.4 27.1-26.6-10.2-26.6-27.1 8-27.2 26.6-27.2zm-11.3 27.2v.1c0 14.1 3.3 23.4 11.3 23.4 7.8 0 11.2-9.3 11.2-23.5s-3.4-23.5-11.2-23.5c-8 0-11.3 9.2-11.3 23.5z" fill="#333"/><path d="m388.3 474.3c0-3.1-.5-3.8-1.9-4.1l-3.1-.4v-2.1l15.1-1.7.4.4v51.5c0 3.4.5 3.7 5.2 4v2.3h-15.7v-4.1c-4.1 3.3-8.5 5-11.5 5-9.8 0-15.2-6.9-15.2-19.1 0-6.8 2.2-12.2 5.8-15.6 3.4-3.3 8.2-5 13.9-5 2.8 0 5.2.4 7 1.2zm0 38.7v-17c0-1.8 0-3.3-.6-4.6-.9-1.8-2.9-3.3-6-3.3-5.2 0-8.9 4.9-8.9 16.5 0 9.6 3.3 15.7 8.9 15.7 2.8 0 4.7-1 5.7-2.9.8-1.3.9-2.8.9-4.4zm52.4-8.8h-20c-.1 8.6 2.4 15.9 10.5 15.9 5.4 0 8.5-2.6 10.9-7.5l2 1.1c-2.5 6.7-7.1 11.4-16.2 11.4-14 .1-18.3-8.7-18.3-19.8 0-10.9 5.1-19.9 18.5-19.9 14.7 0 16.5 10.1 16.5 15.8 0 2.3-1.2 3-3.9 3zm-20-2.8h10.6c2 0 2.5-.6 2.5-2.7 0-4.2-.8-10.6-6.1-10.6-5.7 0-7 8-7 13.3z" fill="#aaa"/><path d="m522 522.2h-32.7v-3.2l5.9-.5c2.4-.3 2.8-1.7 2-4.1-1.8-5.6-4.9-14.9-6.5-19.7h-22.1c-2.2 7.2-4.2 13.3-5.7 19.4-.8 2.8-.4 4.1 2.1 4.4l6.2.5v3.2h-23.2v-3.2c5.9-.3 7-1.2 9.1-6.4 5.2-12.7 16-44.5 22.5-64.4h11.4c5.7 17.4 16.9 51 22.3 65.4 1.7 4.5 3 5.2 8.7 5.4zm-32.8-31.5c-2.1-6.8-7.1-22.7-9.5-30h-.3c-2.2 6.6-7 21.9-9.4 30zm60.7 31.5h-10c-5-14.3-10.8-29.8-16.1-43.8-1.3-3.5-2.7-4.4-6.9-4.6v-3.3h27.1v3.3l-4.1.4c-2 .4-2.2 1-1.5 3.3 2.7 8.3 8.3 24.2 11.4 33.1h.3c3.7-10.6 8.1-24.2 10.5-32.9.5-2 .2-3.1-1.7-3.4l-5.2-.5v-3.3h20.3v3.3c-5 .3-6.3 1.1-7.8 4.6-5 11.8-11.2 29.6-16.3 43.8zm39.6-74.6h.2c4.8 0 7.7 3.6 7.7 7.8 0 4.3-3 7.8-7.9 7.8s-7.8-3.5-7.8-7.8c0-4.2 2.9-7.8 7.8-7.8zm-6.9 65.9v-32.6c0-4.1-.8-5-2.8-5.2l-3.4-.6v-2.9l20-2.9.5.4v43.8c0 4.7.6 5.1 6.9 5.5v3.2h-28v-3.2c6.1-.3 6.8-.8 6.8-5.5zm64.7-27h-3c-1.8-7.8-6.7-13.6-12.5-13.6-4.7 0-7.4 3-7.4 7.1 0 5.1 4.9 7.6 11.1 9.8 10 3.8 15.3 7.6 15.3 16.6 0 10.9-8.6 17.1-21.1 17.1-5.9 0-13.1-1.5-16.6-4.7l-1.3-15.5h3c2.6 8.8 8.3 16.6 15.5 16.6 4.6 0 8.1-2.4 8.1-7.4s-4.6-7.8-10.9-10.3c-9.9-3.8-15.1-8.2-15.1-16.3 0-10.6 7.7-16.7 19.8-16.7 5.3 0 11 1.1 15.1 3.6zm40.4-17.3h.2c18.4 0 26.3 10.3 26.3 27.2s-7.9 27.1-26.5 27.1-26.5-10.2-26.5-27.1 7.9-27.2 26.5-27.2zm-11.3 27.2v.1c0 14.1 3.4 23.4 11.3 23.4s11.2-9.3 11.2-23.5-3.3-23.5-11.2-23.5-11.3 9.2-11.3 23.5zm84.2-9.9h-3c-1.8-7.8-6.7-13.6-12.5-13.6-4.7 0-7.4 3-7.4 7.1 0 5.1 4.9 7.6 11.1 9.8 10 3.8 15.3 7.6 15.3 16.6 0 10.9-8.6 17.1-21 17.1-6 0-13.2-1.5-16.7-4.7l-1.3-15.5h3.1c2.5 8.8 8.2 16.6 15.4 16.6 4.6 0 8.1-2.4 8.1-7.4s-4.6-7.8-10.9-10.3c-9.8-3.8-15.1-8.2-15.1-16.3 0-10.6 7.7-16.7 19.8-16.7 5.3 0 11 1.1 15.1 3.6z" fill="#333"/></g></svg>