<svg viewBox="0 0 2510 795" xmlns="http://www.w3.org/2000/svg"><g fill="none" fill-rule="evenodd"><path d="m741 244 139 126c7 7 11 18 11 28s-4 20-11 27l-139 126c-18 17-34 26-66 2-55-42-84-93-83-155-1-63 28-114 83-155 32-24 48-16 66 1z" fill="#dbdbdb"/><g fill="#333"><path d="m908 471-138 126c-8 7-12 17-12 27v1c0 10 4 20 12 27l138 126c19 17 35 25 66 2 56-42 84-93 83-155 1-63-27-114-83-155-31-24-47-16-66 1z"/><path d="m908 17-138 126c-8 7-12 18-12 28s4 20 12 27l138 126c19 17 35 26 66 2 56-42 84-93 83-155 1-63-27-114-83-155-31-24-47-16-66 1z"/><path d="m394 790c112 0 212-46 284-120 12-12 6-13-1-21l-135-135c-13-13-13-16-36 4-29 27-68 44-112 44-91 0-165-74-166-165 1-91 75-165 166-165 44 0 83 16 112 43 23 21 23 17 36 5l135-136c7-7 13-8 1-21-72-74-172-120-284-120-217 0-393 176-394 393v1 1c1 217 177 392 394 392z"/><g fill-rule="nonzero"><path d="m1240 314h25c2 0 4-1 4-3 0-30 0-59 0-89 0-2 1-3 3-3h27c2 0 3-1 3-3v-20c0-2-1-3-3-3h-34-25-35c-1 0-3 1-3 3v20c0 2 2 3 3 3h28c2 0 3 1 3 3v49 40c0 2 2 3 4 3z"/><path d="m1331 192h81c2 0 3 2 3 3v21c0 2-2 3-3 3-17 0-34 0-50 0-1 0-2 1-2 2v14c0 1 1 2 2 2h40c1 0 3 1 3 3v21c0 1-2 3-3 3-14 0-27 0-40 0-1 0-2 1-2 2v19c0 1 1 2 2 2h50c2 0 3 2 3 3v21c0 2-2 3-3 3-27 0-54 0-81 0-2 0-4-2-4-4v-114c0-2 2-4 4-4z"/><path d="m1782 192h25c2 0 4 2 4 4v114c0 2-2 4-4 4h-25c-2 0-4-2-4-4v-114c0-2 2-4 4-4z"/><path d="m1546 192h81c2 0 3 2 3 3v21c0 2-1 3-3 3-16 0-33 0-50 0-1 0-1 1-1 2v14c0 1 0 2 1 2h40c2 0 3 1 3 3v21c0 1-1 3-3 3-13 0-26 0-39 0-2 0-3 1-3 2v19c0 1 1 2 3 2h49c2 0 3 2 3 3v21c0 2-1 3-3 3-27 0-54 0-81 0-2 0-4-2-4-4v-114c1-2 2-4 4-4z"/><path d="m1438 192h26c2 0 3 2 3 4v91h52c2 0 3 2 3 3v21c0 2-1 3-3 3h-55-15-11c-2 0-4-2-4-4v-114c0-2 2-4 4-4z"/><path d="m1655 192h25 1 1v1h1v1h1s1 1 1 1v1h1v1l20 58c1 2 2 3 3 3s2-1 2-3l21-58v-1-1h1v-1h1v-1h1l1-1h1 26 1v1h1v1h1v1 1 1l-40 114v1h-1v1h-1v1h-1v1h-1v1h-1-1-1-1-1-1-1-1-1-1-1-1-1-1-1-1-1-1-1-1-1-1-1-1-1v-1h-1v-1h-1v-1h-1v-1h-1v-1l-40-114v-1-1-1-1-1h1 1 1z"/><path d="m1965 192h26c2 0 3 2 3 4v114c0 2-1 4-3 4h-26c-2 0-4-2-4-4v-114c0-2 2-4 4-4z"/><path d="m2166 192h26c2 0 36 49 40 55 2 2 1 1 2 0v-5-46c0-2 2-4 4-4h26c2 0 3 2 3 4v114c0 2-1 4-3 4h-26c-2 0-37-52-41-59-1-2-2-2-2 4v51c0 2-1 4-3 4h-26c-2 0-4-2-4-4v-114c0-2 2-4 4-4z"/><path d="m1936 278c0-6-1-11-4-15-2-4-5-8-9-10-3-3-7-6-12-8-4-2-9-3-13-5-4-1-7-2-10-3s-6-2-8-3c-3-2-4-3-6-4-1-2-2-3-2-5 0-3 1-5 3-7 3-1 6-2 10-2 5 0 10 1 16 3 5 2 9 4 14 6 4 2 5 2 6 0l10-18c2-4 0-5-3-7-5-3-11-6-18-8-8-2-16-4-24-4-6 0-12 1-18 3s-10 4-15 8c-4 3-7 8-10 12-2 5-3 11-3 18 0 6 1 11 3 16 3 4 5 7 9 10s8 6 12 7c5 2 9 4 13 5s7 2 10 3l9 3c2 1 4 2 6 4 1 1 2 3 2 5 0 3-2 5-4 7s-6 2-11 2c-6 0-13-1-20-3-5-2-10-5-15-8-3-2-6-3-8 1l-9 13c-4 5 2 10 8 13 5 3 10 6 15 7 10 3 19 5 28 5 6 0 13-1 19-3 5-1 11-4 15-7s8-7 10-13c3-5 4-11 4-18z"/></g><path d="m2235 352h43c3 0 6 3 6 6v192c0 4-3 7-6 7h-43c-4 0-7-3-7-7v-192c1-3 3-6 7-6zm-929 207c-57 0-104-47-104-105 0-57 47-105 104-105 29 0 55 12 74 30 12 13 10 10-1 21l-19 19c-8 9-12 10-20 1-9-9-21-14-34-14-26 0-47 22-47 48 0 27 21 49 47 49 13 0 25-5 34-14 8-9 12-8 20 0l19 19c11 12 13 9 1 21-19 19-45 30-74 30zm1194-3h-43-1-1-1l-1-1h-1v-1h-1v-1h-1v-1l-7-26c-2-2-1-2-3-3h-1-55c-3 1-2 1-4 3l-7 26v1h-1v1h-1v1h-1v1h-1-1-1-1-42-1-1-1v-1h-1v-1-1-1-1l67-192v-1h1v-1h1v-1h1v-1h1v-1h1v-1h1 1 1 1 1 1 1 1 1 1 1 1 1 1 1 1 1 1 1 1 1 1 1 1 1 1 1 1 1 1 1 1 1 1 1 1 1 1 1 1 1 1 1 1l1 1h1v1h1v1h1v1h1v1h1v1l67 192v1 1 1h-1v1h-1v1h-1-1zm-86-125c-2-6-7-6-9 0l-11 39c-1 3 0 5 2 6h1 25 1c3-1 3-3 2-6zm-414 125h-43-1-1-1-1v-1h-1v-1h-1v-1h-1v-1l-7-26c-1-2-1-2-3-3h-1-55c-3 1-2 1-4 3l-7 26v1h-1v1h-1v1h-1v1h-1-1-1-1-43-1-1v-1h-1v-1h-1v-1-1-1h1l67-192v-1-1h1v-1h1v-1h1v-1h1 1v-1h1 1 1 1 1 1 1 1 1 1 1 1 1 1 1 1 1 1 1 1 1 1 1 1 1 1 1 1 1 1 1 1 1 1 1 1 1 1 1 1 1 1 1 1v1h1 1v1h1v1h1v1h1v1 1l67 192h1v1 1 1h-1v1h-1v1h-1-1zm-86-125c-2-6-7-6-9 0l-11 39c-1 3 0 5 2 6h1 25 1c2-1 3-3 2-6zm-324 125h-43-1-1-1l-1-1h-1v-1h-1v-1l-1-1-7-26c-1-2-1-2-3-3h-56c-2 1-2 1-3 3l-8 26v1h-1v1h-1v1h-1v1h-1-1-1-43-1-1-1v-1h-1v-1-1-1-1l67-192v-1h1v-1h1v-1h1v-1h1v-1h1v-1h1 1 1 1 1 1 1 1 1 1 1 1 1 1 1 1 1 1 1 1 1 1 1 1 1 1 1 1 1 1 1 1 1 1 1 1 1 1 1 1 1 1 1 1l1 1h1v1h1v1h1v1h1v1h1v1l67 192v1 1 1h-1v1h-1v1h-1-1zm-86-125c-2-6-6-6-9 0l-11 39c-1 3 0 5 2 6h1 1 24 1c3-1 3-3 3-6zm533-79h93c36 0 65 29 65 65 0 26-16 49-38 59l36 74c2 4 0 6-3 6h-43c-4 0-8-2-10-6l-31-65c-1-2-3-3-4-3h-14c-1 0-2 0-1 2v66c0 4-3 6-7 6h-43c-3 0-6-2-6-6 0-64 0-128 0-192 0-3 3-6 6-6zm87 84h-34c-2 0-3-2-3-4v-30c0-2 1-4 3-4h34c10 0 18 9 18 19s-8 19-18 19zm-507-84h43c4 0 61 81 68 91 4 3 2 2 4 0v-7-78c0-3 2-6 6-6h43c3 0 6 3 6 6v192c0 4-3 6-6 6h-43c-4 0-62-88-69-99-2-3-3-3-3 6v87c0 4-2 6-6 6h-43c-3 0-6-2-6-6v-192c0-3 3-6 6-6z"/><path d="m2078 192c-34 0-61 28-61 61 0 34 27 61 61 61 33 0 60-27 60-61 0-33-27-61-60-61zm-4-12h11c1 0 1-2 2-3l17-21c1-1-1-2-2-2h-21c-1 0-2 1-2 2l-8 21c0 2 1 3 3 3zm4 45c-16 0-28 13-28 28 0 16 12 29 28 29 15 0 27-13 27-29 0-15-12-28-27-28z"/></g></g></svg>