<svg height="256" width="1121" stroke-linejoin="round" viewBox="0 0 1121 256" xmlns="http://www.w3.org/2000/svg" xmlns:xlink="http://www.w3.org/1999/xlink"><linearGradient id="a" gradientUnits="userSpaceOnUse" x1="63.33" x2="241.67" y1="181.97" y2="181.97"><stop offset="0" stop-color="#0c59a4"/><stop offset="1" stop-color="#114a8b"/></linearGradient><radialGradient id="b" cx="0" cy="0" gradientTransform="matrix(95.38 0 0 -90.611 161.83 183.376)" gradientUnits="userSpaceOnUse" r="1"><stop offset="0" stop-opacity="0"/><stop offset=".72" stop-opacity="0"/><stop offset=".95" stop-opacity=".2"/><stop offset="1" stop-opacity=".4"/></radialGradient><linearGradient id="c" gradientTransform="matrix(-111.39 121.33 -121.33 -111.39 157.35 104.61)" gradientUnits="userSpaceOnUse" x1="0" x2="1" y1="0" y2="0"><stop offset="0" stop-color="#1b9de2"/><stop offset=".16" stop-color="#1595df"/><stop offset=".67" stop-color="#0680d7"/><stop offset="1" stop-color="#0078d4"/></linearGradient><radialGradient id="d" cx="0" cy="0" gradientTransform="matrix(21.486 -141.808 -114.592 -17.1888 75.2045 203.928)" gradientUnits="userSpaceOnUse" r="1"><stop offset="0" stop-opacity="0"/><stop offset=".76" stop-opacity="0"/><stop offset=".95" stop-opacity=".2"/><stop offset="1" stop-opacity=".4"/></radialGradient><radialGradient id="e" cx="0" cy="0" gradientTransform="matrix(-8.0972 202.43 431.176 16.1944 30.4725 52.2968)" gradientUnits="userSpaceOnUse" r="1"><stop offset="0" stop-color="#35c1f1"/><stop offset=".11" stop-color="#34c1ed"/><stop offset=".23" stop-color="#2fc2df"/><stop offset=".31" stop-color="#2bc3d2"/><stop offset=".67" stop-color="#36c752"/><stop offset="1" stop-color="#36c752"/></radialGradient><radialGradient id="f" cx="0" cy="0" gradientTransform="matrix(27.2552 93.4464 75.9252 -22.3882 244.682 82.3261)" gradientUnits="userSpaceOnUse" r="1"><stop offset="0" stop-color="#66eb6e"/><stop offset="1" stop-color="#66eb6e" stop-opacity="0"/></radialGradient><path d="m235.68 195.46c-3.413 1.785-6.933 3.358-10.54 4.71-11.48 4.296-23.642 6.484-35.9 6.46-47.32 0-88.54-32.55-88.54-74.32.123-11.393 6.422-21.864 16.43-27.31-42.8 1.8-53.8 46.4-53.8 72.53 0 73.88 68.09 81.37 82.76 81.37 7.91 0 19.84-2.3 27-4.56l1.31-.44c27.547-9.523 51.044-28.152 66.6-52.8.407-.641.623-1.384.623-2.144 0-2.194-1.806-4-4-4-.68 0-1.349.174-1.943.504z" fill="url(#a)" transform="translate(-4.61 -4.92)"/><path d="m235.68 195.46c-3.413 1.785-6.933 3.358-10.54 4.71-11.48 4.296-23.642 6.484-35.9 6.46-47.32 0-88.54-32.55-88.54-74.32.123-11.393 6.422-21.864 16.43-27.31-42.8 1.8-53.8 46.4-53.8 72.53 0 73.88 68.09 81.37 82.76 81.37 7.91 0 19.84-2.3 27-4.56l1.31-.44c27.547-9.523 51.044-28.152 66.6-52.8.407-.641.623-1.384.623-2.144 0-2.194-1.806-4-4-4-.68 0-1.349.174-1.943.504z" fill="url(#b)" transform="translate(-4.61 -4.92)"/><path d="m110.34 246.34c-8.919-5.536-16.649-12.79-22.74-21.34-10.084-13.815-15.52-30.485-15.52-47.589 0-30.698 17.512-58.846 45.05-72.411 3.12-1.47 8.45-4.13 15.54-4 10.119.074 19.638 4.891 25.69 13 4.038 5.391 6.265 11.925 6.36 18.66 0-.21 24.46-79.6-80-79.6-43.9 0-80 41.66-80 78.21-.173 19.334 3.964 38.465 12.11 56 27.424 58.513 95.075 87.546 156.38 67.11-21.077 6.645-44.043 3.719-62.78-8z" fill="url(#c)" transform="translate(-4.61 -4.92)"/><path d="m110.34 246.34c-8.919-5.536-16.649-12.79-22.74-21.34-10.084-13.815-15.52-30.485-15.52-47.589 0-30.698 17.512-58.846 45.05-72.411 3.12-1.47 8.45-4.13 15.54-4 10.119.074 19.638 4.891 25.69 13 4.038 5.391 6.265 11.925 6.36 18.66 0-.21 24.46-79.6-80-79.6-43.9 0-80 41.66-80 78.21-.173 19.334 3.964 38.465 12.11 56 27.424 58.513 95.075 87.546 156.38 67.11-21.077 6.645-44.043 3.719-62.78-8z" fill="url(#d)" transform="translate(-4.61 -4.92)"/><path d="m156.94 153.78c-.81 1.05-3.3 2.5-3.3 5.66 0 2.61 1.7 5.12 4.72 7.23 14.38 10 41.49 8.68 41.56 8.68 10.654-.026 21.109-2.91 30.27-8.35 18.783-10.967 30.385-31.13 30.43-52.88.26-22.41-8-37.31-11.34-43.91-21.19-41.45-66.93-65.29-116.67-65.29-69.544-.007-127.022 56.663-128 126.2.48-36.54 36.8-66.05 80-66.05 3.5 0 23.46.34 42 10.07 16.34 8.58 24.9 18.94 30.85 29.21 6.18 10.67 7.28 24.15 7.28 29.52s-2.74 13.33-7.8 19.91z" fill="url(#e)" transform="translate(-4.61 -4.92)"/><path d="m156.94 153.78c-.81 1.05-3.3 2.5-3.3 5.66 0 2.61 1.7 5.12 4.72 7.23 14.38 10 41.49 8.68 41.56 8.68 10.654-.026 21.109-2.91 30.27-8.35 18.783-10.967 30.385-31.13 30.43-52.88.26-22.41-8-37.31-11.34-43.91-21.19-41.45-66.93-65.29-116.67-65.29-69.544-.007-127.022 56.663-128 126.2.48-36.54 36.8-66.05 80-66.05 3.5 0 23.46.34 42 10.07 16.34 8.58 24.9 18.94 30.85 29.21 6.18 10.67 7.28 24.15 7.28 29.52s-2.74 13.33-7.8 19.91z" fill="url(#f)" transform="translate(-4.61 -4.92)"/><path d="m.723 0 .191-.714h-.095l-.145.594h-.002l-.158-.594h-.103l-.16.594h-.002l-.14-.594h-.097l.183.714h.099l.165-.6h.002l.163.6z" fill="#5c5c5c" transform="matrix(75.781553166 0 0 75.781553166 319.83518092 102.24873373)"/><path d="m.126-.258c0-.031.004-.059.013-.084.008-.024.019-.044.034-.061s.032-.029.052-.038c.019-.009.04-.013.062-.013s.043.004.063.013c.019.009.036.021.051.038s.026.037.035.061c.008.025.012.053.012.084s-.004.059-.012.083c-.009.025-.02.045-.035.061-.015.017-.032.029-.051.038-.02.009-.041.013-.063.013s-.043-.004-.062-.013c-.02-.009-.037-.021-.052-.038-.015-.016-.026-.036-.034-.061-.009-.024-.013-.052-.013-.083zm-.09 0c0 .038.005.073.016.106s.027.061.048.085c.021.025.048.044.079.057.031.014.067.021.108.021s.078-.007.109-.021c.031-.013.057-.032.078-.057.021-.024.037-.052.048-.085s.016-.068.016-.106-.005-.073-.016-.107c-.011-.033-.027-.061-.048-.086-.021-.024-.047-.043-.078-.057s-.068-.021-.109-.021-.077.007-.108.021-.058.033-.079.057c-.021.025-.037.053-.048.086-.011.034-.016.069-.016.107z" fill="#5c5c5c" transform="matrix(75.781553166 0 0 75.781553166 385.68965224 102.24873373)"/><path d="m.061-.517v.517h.085v-.23c0-.033.003-.063.01-.089.007-.025.017-.047.032-.065s.034-.032.058-.041.053-.014.087-.014v-.09c-.046-.001-.084.008-.114.028s-.055.051-.076.093h-.002v-.109z" fill="#5c5c5c" transform="matrix(75.781553166 0 0 75.781553166 429.18817555 102.24873373)"/><path d="m.069-.714v.714h.085v-.196l.08-.074.177.27h.108l-.22-.329.205-.188h-.114l-.236.226v-.423z" fill="#5c5c5c" transform="matrix(75.781553166 0 0 75.781553166 454.42340161 102.24873373)"/><path d="m.116-.163h-.085c.001.032.008.059.02.081.012.023.028.041.048.054.02.014.043.024.069.03s.053.009.082.009c.026 0 .052-.003.079-.007.026-.006.05-.014.071-.027s.038-.029.051-.05.019-.047.019-.078c0-.025-.005-.045-.014-.062-.01-.017-.023-.031-.038-.042-.016-.011-.034-.019-.054-.026-.021-.007-.042-.012-.063-.017-.02-.005-.04-.009-.06-.014-.02-.004-.038-.009-.054-.016-.016-.006-.029-.014-.039-.024-.011-.009-.016-.021-.016-.036 0-.013.003-.024.01-.033.007-.008.015-.015.026-.02s.023-.008.036-.01.025-.003.038-.003c.014 0 .028.002.042.004.013.003.026.008.037.015s.021.015.028.026.012.025.013.042h.085c-.002-.031-.009-.058-.02-.079s-.026-.037-.045-.05c-.019-.012-.041-.021-.066-.026s-.052-.007-.081-.007c-.023 0-.045.003-.068.008-.024.006-.044.015-.062.026-.019.012-.034.027-.045.046-.012.019-.018.041-.018.067 0 .033.008.059.025.078s.038.033.063.043c.025.011.052.019.081.024.029.006.057.012.082.019s.045.017.062.028.025.028.025.05c0 .016-.004.029-.012.039-.008.011-.018.019-.03.024-.013.005-.026.009-.041.011s-.029.003-.042.003c-.017 0-.034-.002-.05-.005-.017-.003-.032-.009-.044-.017-.013-.007-.024-.017-.032-.031-.008-.013-.012-.028-.013-.047z" fill="#5c5c5c" transform="matrix(75.781553166 0 0 75.781553166 493.75402624 102.24873373)"/><path d="m.576 0 .165-.517h-.088l-.116.423h-.002l-.108-.423h-.093l-.104.423h-.002l-.117-.423h-.094l.166.517h.092l.104-.411h.002l.105.411z" fill="#5c5c5c" transform="matrix(75.781553166 0 0 75.781553166 552.71286178 102.24873373)"/><path d="m.154-.61v-.104h-.085v.104zm-.085.093v.517h.085v-.517z" fill="#5c5c5c" transform="matrix(75.781553166 0 0 75.781553166 610.1541976 102.24873373)"/><path d="m.182-.517v-.155h-.085v.155h-.088v.075h.088v.329c0 .024.002.043.007.058s.012.026.022.034c.009.008.022.013.038.016.015.003.034.005.056.005h.065v-.075h-.039c-.013 0-.024-.001-.032-.002-.009-.001-.015-.003-.02-.006s-.008-.008-.009-.014c-.002-.006-.003-.014-.003-.024v-.321h.103v-.075z" fill="#5c5c5c" transform="matrix(75.781553166 0 0 75.781553166 626.9804686 102.24873373)"/><path d="m.064-.714v.714h.085v-.292c0-.023.003-.045.01-.065.006-.019.015-.036.028-.051s.029-.026.048-.034.041-.012.067-.012c.033 0 .058.009.077.028s.028.044.028.076v.35h.085v-.34c0-.028-.003-.053-.008-.077-.006-.023-.016-.042-.03-.059s-.032-.03-.055-.039-.051-.014-.085-.014c-.015 0-.031.002-.047.005-.017.003-.032.008-.047.015s-.029.016-.041.027c-.012.012-.021.025-.028.041h-.002v-.273z" fill="#5c5c5c" transform="matrix(75.781553166 0 0 75.781553166 650.850781 102.24873373)"/><g fill="#555"><path d="m.069-.714v.714h.147v-.501h.002l.175.501h.121l.175-.506h.002v.506h.147v-.714h-.221l-.158.491h-.002l-.167-.491z" transform="matrix(111.41113296 0 0 111.41113296 313.05569341 205.88836755)"/><path d="m.2-.597v-.117h-.142v.117zm-.142.08v.517h.142v-.517z" transform="matrix(111.41113296 0 0 111.41113296 414.10527308 205.88836755)"/><path d="m.406-.335h.139c-.002-.033-.01-.062-.024-.087-.014-.024-.032-.044-.054-.061-.023-.016-.048-.028-.076-.036-.029-.008-.058-.012-.089-.012-.042 0-.079.007-.112.021s-.06.034-.083.058c-.023.025-.04.055-.051.089-.012.035-.018.072-.018.112 0 .039.006.074.019.106.013.033.03.061.053.084s.05.041.083.054c.032.014.067.02.106.02.069 0 .125-.018.169-.054s.071-.088.08-.157h-.137c-.005.032-.016.058-.034.076-.019.02-.045.029-.079.029-.022 0-.041-.005-.056-.015s-.027-.023-.036-.039c-.009-.015-.016-.033-.02-.052s-.006-.038-.006-.057.002-.039.006-.059c.004-.019.011-.037.021-.054.009-.016.022-.029.037-.04.015-.01.034-.015.057-.015.061 0 .096.03.105.089z" transform="matrix(111.41113296 0 0 111.41113296 442.84953442 205.88836755)"/><path d="m.054-.517v.517h.142v-.233c0-.023.002-.045.007-.065s.013-.037.024-.053c.011-.015.025-.026.043-.035s.04-.013.066-.013c.009 0 .018 0 .027.001s.017.003.024.004v-.132c-.011-.003-.022-.005-.031-.005-.018 0-.035.003-.052.008s-.032.013-.047.022c-.015.01-.028.022-.039.035-.011.014-.02.029-.027.045h-.002v-.096z" transform="matrix(111.41113296 0 0 111.41113296 506.79858815 205.88836755)"/><path d="m.18-.258c0-.021.002-.041.006-.061s.011-.038.021-.053c.009-.015.022-.028.038-.038.016-.009.036-.014.06-.014s.044.005.061.014c.016.01.029.023.039.038.009.015.016.033.02.053s.006.04.006.061-.002.041-.006.06c-.004.02-.011.038-.02.053-.01.016-.023.029-.039.038-.017.009-.037.014-.061.014s-.044-.005-.06-.014-.029-.022-.038-.038c-.01-.015-.017-.033-.021-.053-.004-.019-.006-.039-.006-.06zm-.142 0c0 .041.006.079.019.112s.031.062.054.085c.023.024.051.042.084.055s.069.019.11.019.078-.006.111-.019.061-.031.084-.055c.023-.023.041-.052.054-.085s.019-.071.019-.112-.006-.079-.019-.113c-.013-.033-.031-.062-.054-.086-.023-.023-.051-.042-.084-.055s-.07-.019-.111-.019-.077.006-.11.019-.061.032-.084.055c-.023.024-.041.053-.054.086-.013.034-.019.072-.019.113z" transform="matrix(111.41113296 0 0 111.41113296 548.13202396 205.88836755)"/><path d="m.164-.168h-.135c.001.035.009.063.024.086.014.024.032.042.055.056.022.014.047.024.076.03s.058.009.088.009c.029 0 .058-.003.087-.008.028-.006.053-.016.075-.03s.04-.032.054-.056c.013-.022.02-.051.02-.085 0-.024-.005-.044-.014-.061-.009-.016-.022-.03-.037-.041s-.033-.019-.052-.026c-.02-.007-.04-.012-.061-.017-.02-.005-.04-.009-.059-.013s-.036-.009-.051-.014-.028-.011-.037-.019-.014-.018-.014-.031c0-.011.003-.019.008-.026.005-.006.012-.011.02-.014.007-.003.016-.006.025-.007s.018-.001.026-.001c.025 0 .047.005.066.014.019.01.029.029.031.056h.135c-.003-.032-.011-.059-.024-.08-.014-.021-.031-.037-.052-.05s-.044-.022-.07-.027c-.027-.005-.054-.008-.082-.008s-.055.002-.082.007-.051.014-.072.026c-.021.013-.038.03-.051.051s-.02.049-.02.082c0 .023.005.042.014.057.009.016.022.029.037.039.015.011.033.019.053.025.019.007.039.012.06.017.051.011.09.021.119.032.028.011.042.027.042.048 0 .013-.003.023-.009.031-.006.009-.014.016-.022.02-.009.006-.019.009-.03.011-.011.003-.022.004-.032.004-.014 0-.027-.002-.04-.005s-.025-.008-.035-.016c-.01-.007-.018-.016-.024-.027-.007-.01-.01-.024-.01-.039z" transform="matrix(111.41113296 0 0 111.41113296 616.2087287 205.88836755)"/><path d="m.18-.258c0-.021.002-.041.006-.061s.011-.038.021-.053c.009-.015.022-.028.038-.038.016-.009.036-.014.06-.014s.044.005.061.014c.016.01.029.023.039.038.009.015.016.033.02.053s.006.04.006.061-.002.041-.006.06c-.004.02-.011.038-.02.053-.01.016-.023.029-.039.038-.017.009-.037.014-.061.014s-.044-.005-.06-.014-.029-.022-.038-.038c-.01-.015-.017-.033-.021-.053-.004-.019-.006-.039-.006-.06zm-.142 0c0 .041.006.079.019.112s.031.062.054.085c.023.024.051.042.084.055s.069.019.11.019.078-.006.111-.019.061-.031.084-.055c.023-.023.041-.052.054-.085s.019-.071.019-.112-.006-.079-.019-.113c-.013-.033-.031-.062-.054-.086-.023-.023-.051-.042-.084-.055s-.07-.019-.111-.019-.077.006-.11.019-.061.032-.084.055c-.023.024-.041.053-.054.086-.013.034-.019.072-.019.113z" transform="matrix(111.41113296 0 0 111.41113296 676.0344277 205.88836755)"/><path d="m.085-.422v.422h.142v-.422h.098v-.095h-.098v-.031c0-.021.004-.036.013-.046.008-.009.022-.013.041-.013.018 0 .035.001.052.003v-.106c-.012-.001-.024-.002-.037-.003-.013 0-.025-.001-.038-.001-.058 0-.101.015-.13.044s-.043.067-.043.113v.04h-.085v.095z" transform="matrix(111.41113296 0 0 111.41113296 744.1089843 205.88836755)"/><path d="m.234-.517v-.155h-.142v.155h-.086v.095h.086v.305c0 .026.004.047.013.063s.021.028.036.037.032.014.052.018c.019.003.04.004.062.004.014 0 .028 0 .043-.001s.028-.002.04-.004v-.11c-.007.001-.014.002-.021.003s-.015.001-.023.001c-.024 0-.04-.004-.048-.012s-.012-.024-.012-.048v-.256h.104v-.095z" transform="matrix(111.41113296 0 0 111.41113296 781.2073621 205.88836755)"/><path d="m.069-.714v.714h.542v-.132h-.385v-.175h.346v-.122h-.346v-.153h.377v-.132z" transform="matrix(111.41113296 0 0 111.41113296 851.3978366 205.88836755)"/><path d="m.421-.26c0 .021-.002.042-.006.062s-.011.038-.02.053c-.009.016-.022.029-.037.038-.016.009-.036.014-.059.014-.022 0-.041-.005-.056-.015-.016-.009-.029-.022-.039-.038-.011-.015-.018-.033-.023-.053s-.007-.04-.007-.06c0-.021.002-.042.007-.062.004-.019.011-.037.021-.052.009-.015.022-.028.038-.037s.036-.014.059-.014.043.005.058.014.028.021.038.036c.009.015.016.033.02.052.004.02.006.041.006.062zm.002.194v.066h.135v-.714h-.142v.26h-.002c-.016-.025-.038-.045-.065-.058-.028-.013-.057-.019-.088-.019-.038 0-.071.007-.1.022s-.052.035-.071.06c-.02.025-.034.053-.043.085-.01.033-.015.066-.015.101 0 .036.005.071.015.104.009.033.023.063.043.088.019.026.043.047.072.061.029.016.063.023.102.023.034 0 .065-.006.092-.019.027-.012.048-.032.065-.06z" transform="matrix(111.41113296 0 0 111.41113296 923.5860813 205.88836755)"/><path d="m.295-.122c-.022 0-.04-.005-.055-.014s-.026-.021-.035-.036-.016-.031-.019-.05c-.004-.018-.006-.036-.006-.055s.002-.038.007-.056c.004-.017.011-.033.021-.047.009-.013.021-.024.036-.032.014-.008.031-.012.051-.012.023 0 .043.004.058.013s.028.02.037.035.016.031.02.05.006.04.006.061c0 .019-.002.036-.007.053s-.013.033-.023.046-.023.024-.038.032-.033.012-.053.012zm.256.089v-.484h-.135v.069h-.002c-.017-.03-.039-.051-.064-.064-.026-.013-.056-.019-.09-.019-.036 0-.068.007-.095.021-.028.014-.051.033-.07.056-.019.024-.033.051-.042.082-.01.031-.015.064-.015.097 0 .035.004.069.013.1.008.032.021.06.039.083.018.024.041.043.069.056.028.014.061.021.1.021.031 0 .061-.007.09-.02.028-.013.05-.033.065-.06h.002v.068c.001.037-.008.067-.026.091-.019.024-.048.036-.088.036-.025 0-.048-.005-.067-.015-.019-.011-.032-.029-.039-.056h-.141c.002.029.01.055.025.076.014.021.032.038.054.051.021.013.045.023.072.03.026.006.052.009.077.009.059 0 .107-.008.142-.024s.062-.036.081-.058c.019-.023.031-.048.037-.075.005-.027.008-.05.008-.071z" transform="matrix(111.41113296 0 0 111.41113296 991.6606379 205.88836755)"/><path d="m.402-.314h-.231c.001-.01.003-.021.007-.034.003-.013.01-.025.019-.036s.021-.021.036-.029c.015-.007.033-.011.056-.011.035 0 .06.009.078.028.017.019.028.046.035.082zm-.231.09h.373c.003-.04-.001-.078-.01-.115s-.025-.069-.045-.098c-.021-.029-.048-.052-.081-.069s-.071-.025-.115-.025c-.039 0-.075.007-.107.021-.033.014-.061.033-.084.057-.023.025-.041.054-.054.087s-.019.069-.019.108c0 .04.006.077.019.11.012.033.029.062.052.086s.05.042.083.055c.033.014.069.02.11.02.059 0 .109-.013.15-.04s.072-.071.092-.133h-.125c-.005.016-.017.031-.038.045-.021.015-.045.022-.074.022-.04 0-.071-.01-.092-.031s-.033-.054-.035-.1z" transform="matrix(111.41113296 0 0 111.41113296 1059.7351945 205.88836755)"/></g></svg>
