<?xml version="1.0" encoding="UTF-8" standalone="no"?><!DOCTYPE svg PUBLIC "-//W3C//DTD SVG 1.1//EN" "http://www.w3.org/Graphics/SVG/1.1/DTD/svg11.dtd"><svg width="100%" height="100%" viewBox="0 0 1920 291" version="1.1" xmlns="http://www.w3.org/2000/svg" xmlns:xlink="http://www.w3.org/1999/xlink" xml:space="preserve" xmlns:serif="http://www.serif.com/" style="fill-rule:evenodd;clip-rule:evenodd;stroke-linejoin:round;stroke-miterlimit:2;"><path d="M265.093,63.133c16.094,23.368 25.506,51.677 25.506,82.166c0,80.193 -65.107,145.3 -145.3,145.3c-80.193,0 -145.299,-65.107 -145.299,-145.3c0,-80.193 65.106,-145.299 145.299,-145.299c24.764,0 48.089,6.208 68.497,17.169l-79.107,94.009l-30.046,-25.283l8.937,103.83l103.83,-8.938l-30.046,-25.283l77.729,-92.371Z" style="fill:#b75050;"/><path d="M517.576,162.071c0,-16.61 -10.928,-27.319 -27.756,-27.319l-72.777,0l0,-27.537l93.758,0l0,-27.537l-93.758,0c-16.609,0 -27.318,10.053 -27.318,27.537l0,27.537c0,17.921 11.146,27.319 27.318,27.319l72.777,0l0,27.537l-98.128,0l0,27.318l98.128,0c17.702,0 27.756,-9.616 27.756,-27.318l0,-27.537Z" style="fill:#404040;fill-rule:nonzero;"/><path d="M643.241,161.852c16.172,0 27.1,-10.927 27.1,-27.319l0,-27.537c0,-15.735 -11.146,-27.318 -27.1,-27.318l-81.519,0c-17.265,0 -27.1,11.364 -27.1,27.318l0,82.612c0,15.517 11.146,27.318 27.1,27.318l101.844,0l0,-27.318l-101.844,0l0,-27.756l81.519,0Zm-81.519,-27.319l0,-27.537l81.519,0l0,27.537l-81.519,0Z" style="fill:#404040;fill-rule:nonzero;"/><path d="M817.861,107.215c0,-18.358 -9.179,-27.537 -27.537,-27.537l-102.499,0l0,137.248l27.318,0l0,-109.711l75.181,0l0,109.711l27.537,0l0,-109.711Z" style="fill:#404040;fill-rule:nonzero;"/><path d="M970.626,40.339l-27.318,0l0,39.339l-79.989,0c-14.643,0 -27.318,11.801 -27.318,26.881l0,83.049c0,16.172 11.364,27.318 27.318,27.318l107.307,0l0,-176.587Zm-107.307,149.269l0,-82.393l79.989,0l0,82.393l-79.989,0Z" style="fill:#404040;fill-rule:nonzero;"/><path d="M1124.48,79.678l-27.537,0l0,55.074l-77.366,0l0,-55.074l-27.755,0l0,137.248l27.755,0l0,-54.855l77.366,0l0,54.855l27.537,0l0,-137.248Z" style="fill:#404040;fill-rule:nonzero;"/><path d="M1252.34,161.852c16.173,0 27.1,-10.927 27.1,-27.319l0,-27.537c0,-15.735 -11.146,-27.318 -27.1,-27.318l-81.518,0c-17.266,0 -27.1,11.364 -27.1,27.318l0,82.612c0,15.517 11.146,27.318 27.1,27.318l101.843,0l0,-27.318l-101.843,0l0,-27.756l81.518,0Zm-81.518,-27.319l0,-27.537l81.518,0l0,27.537l-81.518,0Z" style="fill:#404040;fill-rule:nonzero;"/><path d="M1422.37,107.215c0,-18.358 -9.179,-27.537 -27.537,-27.537l-97.91,0l0,137.248l27.319,0l0,-109.711l70.591,0l0,27.537l27.537,0l0,-27.537Z" style="fill:#404040;fill-rule:nonzero;"/><path d="M1543.66,161.852c16.173,0 27.1,-10.927 27.1,-27.319l0,-27.537c0,-15.735 -11.146,-27.318 -27.1,-27.318l-81.518,0c-17.266,0 -27.1,11.364 -27.1,27.318l0,82.612c0,15.517 11.146,27.318 27.1,27.318l101.843,0l0,-27.318l-101.843,0l0,-27.756l81.518,0Zm-81.518,-27.319l0,-27.537l81.518,0l0,27.537l-81.518,0Z" style="fill:#404040;fill-rule:nonzero;"/><path d="M1723.09,107.215c0,-15.08 -12.238,-27.537 -27.318,-27.537l-107.526,0l0,137.248l27.319,0l0,-54.855l80.207,0c18.139,0 27.318,-8.961 27.318,-27.319l0,-27.537Zm-107.525,27.537l0,-27.537l80.207,0l0,27.537l-80.207,0Z" style="fill:#404040;fill-rule:nonzero;"/><rect x="1738.61" y="40.339" width="27.756" height="176.587" style="fill:#404040;fill-rule:nonzero;"/><path d="M1919.78,189.608l-88.731,0l88.731,-96.599l0,-13.331l-137.03,0l0,27.537l88.949,0l-88.949,94.631l0,15.08l137.03,0l0,-27.318Z" style="fill:#404040;fill-rule:nonzero;"/></svg>